<svg xmlns="http://www.w3.org/2000/svg" xmlns:xlink="http://www.w3.org/1999/xlink" width="171" zoomAndPan="magnify" viewBox="0 0 128.25 148.499994" height="198" preserveAspectRatio="xMidYMid meet" version="1.0"><defs><clipPath id="b623fb04d5"><path d="M 0 36 L 64 36 L 64 146.871094 L 0 146.871094 Z M 0 36 " clip-rule="nonzero"/></clipPath><clipPath id="f48a8299c4"><path d="M 0 0.183594 L 127.273438 0.183594 L 127.273438 74 L 0 74 Z M 0 0.183594 " clip-rule="nonzero"/></clipPath><clipPath id="f3d827e4dd"><path d="M 63 36 L 127.273438 36 L 127.273438 146.871094 L 63 146.871094 Z M 63 36 " clip-rule="nonzero"/></clipPath><clipPath id="66b53a01c8"><path d="M 31.382812 91 L 64 91 L 64 146.976562 L 31.382812 146.976562 Z M 31.382812 91 " clip-rule="nonzero"/></clipPath><clipPath id="4768821744"><path d="M 31.382812 73.09375 L 95.558594 73.09375 L 95.558594 110 L 31.382812 110 Z M 31.382812 73.09375 " clip-rule="nonzero"/></clipPath><clipPath id="3c30b1ba4c"><path d="M 63 91 L 95.558594 91 L 95.558594 146.976562 L 63 146.976562 Z M 63 91 " clip-rule="nonzero"/></clipPath><clipPath id="75cdfb25cc"><path d="M 47.359375 119 L 64 119 L 64 147.140625 L 47.359375 147.140625 Z M 47.359375 119 " clip-rule="nonzero"/></clipPath><clipPath id="4ebfa1de77"><path d="M 47.359375 109.925781 L 79.714844 109.925781 L 79.714844 129 L 47.359375 129 Z M 47.359375 109.925781 " clip-rule="nonzero"/></clipPath><clipPath id="4f037ca785"><path d="M 63 119 L 79.714844 119 L 79.714844 147.140625 L 63 147.140625 Z M 63 119 " clip-rule="nonzero"/></clipPath><clipPath id="5534c62f92"><path d="M 55.203125 133 L 64 133 L 64 147.402344 L 55.203125 147.402344 Z M 55.203125 133 " clip-rule="nonzero"/></clipPath><clipPath id="f36c1e8a5f"><path d="M 55.203125 128.527344 L 71.921875 128.527344 L 71.921875 139 L 55.203125 139 Z M 55.203125 128.527344 " clip-rule="nonzero"/></clipPath><clipPath id="52917258a9"><path d="M 63 133 L 71.921875 133 L 71.921875 147.402344 L 63 147.402344 Z M 63 133 " clip-rule="nonzero"/></clipPath></defs><g clip-path="url(#b623fb04d5)"><path fill="#1a456e" d="M 63.75 146.9375 L 63.921875 147.03125 L 63.75 147.136719 L 0.332031 110.515625 L 0.125 110.394531 L 0.125 36.925781 L 0.332031 36.804688 L 63.75 73.425781 L 63.921875 73.324219 L 63.949219 73.347656 L 63.75 73.460938 Z M 63.75 146.9375 " fill-opacity="1" fill-rule="nonzero"/></g><g clip-path="url(#f48a8299c4)"><path fill="#88b0dc" d="M 127.175781 36.804688 L 63.921875 73.324219 L 63.75 73.425781 L 0.332031 36.804688 L 63.75 0.183594 Z M 127.175781 36.804688 " fill-opacity="1" fill-rule="nonzero"/></g><g clip-path="url(#f3d827e4dd)"><path fill="#c2d9f0" d="M 127.382812 36.925781 L 127.382812 110.394531 L 127.175781 110.515625 L 63.921875 147.03125 L 63.75 146.9375 L 63.75 73.460938 L 63.949219 73.347656 L 127.210938 36.820312 Z M 127.382812 36.925781 " fill-opacity="1" fill-rule="nonzero"/></g><g clip-path="url(#66b53a01c8)"><path fill="#c2d9f0" d="M 63.496094 147.035156 L 63.582031 147.082031 L 63.496094 147.136719 L 31.542969 128.683594 L 31.441406 128.621094 L 31.441406 91.605469 L 31.542969 91.546875 L 63.496094 109.996094 L 63.582031 109.945312 L 63.597656 109.957031 L 63.496094 110.015625 Z M 63.496094 147.035156 " fill-opacity="1" fill-rule="nonzero"/></g><g clip-path="url(#4768821744)"><path fill="#88b0dc" d="M 95.453125 91.546875 L 63.582031 109.945312 L 63.496094 109.996094 L 31.542969 91.546875 L 63.496094 73.09375 Z M 95.453125 91.546875 " fill-opacity="1" fill-rule="nonzero"/></g><g clip-path="url(#3c30b1ba4c)"><path fill="#1a456e" d="M 95.558594 91.605469 L 95.558594 128.621094 L 95.453125 128.683594 L 63.582031 147.082031 L 63.496094 147.035156 L 63.496094 110.015625 L 63.597656 109.957031 L 95.46875 91.554688 Z M 95.558594 91.605469 " fill-opacity="1" fill-rule="nonzero"/></g><g clip-path="url(#75cdfb25cc)"><path fill="#1a456e" d="M 63.492188 147.074219 L 63.539062 147.097656 L 63.492188 147.125 L 47.441406 137.855469 L 47.386719 137.824219 L 47.386719 119.226562 L 47.441406 119.199219 L 63.492188 128.46875 L 63.539062 128.441406 L 63.542969 128.449219 L 63.492188 128.476562 Z M 63.492188 147.074219 " fill-opacity="1" fill-rule="nonzero"/></g><g clip-path="url(#4ebfa1de77)"><path fill="#88b0dc" d="M 79.546875 119.199219 L 63.539062 128.441406 L 63.492188 128.46875 L 47.441406 119.199219 L 63.492188 109.925781 Z M 79.546875 119.199219 " fill-opacity="1" fill-rule="nonzero"/></g><g clip-path="url(#4f037ca785)"><path fill="#c2d9f0" d="M 79.601562 119.226562 L 79.601562 137.824219 L 79.546875 137.855469 L 63.539062 147.097656 L 63.492188 147.074219 L 63.492188 128.476562 L 63.542969 128.449219 L 79.558594 119.203125 Z M 79.601562 119.226562 " fill-opacity="1" fill-rule="nonzero"/></g><g clip-path="url(#5534c62f92)"><path fill="#c2d9f0" d="M 63.492188 147.617188 L 63.515625 147.628906 L 63.492188 147.640625 L 55.246094 142.878906 L 55.21875 142.863281 L 55.21875 133.308594 L 55.246094 133.292969 L 63.492188 138.054688 L 63.515625 138.042969 L 63.519531 138.042969 L 63.492188 138.058594 Z M 63.492188 147.617188 " fill-opacity="1" fill-rule="nonzero"/></g><g clip-path="url(#f36c1e8a5f)"><path fill="#88b0dc" d="M 71.742188 133.292969 L 63.515625 138.042969 L 63.492188 138.054688 L 55.246094 133.292969 L 63.492188 128.527344 Z M 71.742188 133.292969 " fill-opacity="1" fill-rule="nonzero"/></g><g clip-path="url(#52917258a9)"><path fill="#1a456e" d="M 71.769531 133.308594 L 71.769531 142.863281 L 71.742188 142.878906 L 63.515625 147.628906 L 63.492188 147.617188 L 63.492188 138.058594 L 63.519531 138.042969 L 71.746094 133.292969 Z M 71.769531 133.308594 " fill-opacity="1" fill-rule="nonzero"/></g></svg>